<?xml version="1.0" encoding="UTF-8"?>
<svg width="700pt" height="700pt" version="1.1" viewBox="0 0 700 700" xmlns="http://www.w3.org/2000/svg" xmlns:xlink="http://www.w3.org/1999/xlink">
 <defs>
  <symbol id="m" overflow="visible">
   <path d="m29.312-1.75c-1.5117 0.78125-3.0898 1.3711-4.7344 1.7656-1.6367 0.40625-3.3398 0.60938-5.1094 0.60938-5.3125 0-9.5273-1.4844-12.641-4.4531-3.1055-2.9688-4.6562-7-4.6562-12.094s1.5508-9.125 4.6562-12.094c3.1133-2.9688 7.3281-4.4531 12.641-4.4531 1.7695 0 3.4727 0.19922 5.1094 0.59375 1.6445 0.39844 3.2227 0.99219 4.7344 1.7812v6.5938c-1.5312-1.0391-3.0391-1.8008-4.5156-2.2812-1.4805-0.48828-3.0391-0.73438-4.6719-0.73438-2.9375 0-5.2461 0.94531-6.9219 2.8281-1.6797 1.875-2.5156 4.4648-2.5156 7.7656 0 3.293 0.83594 5.8828 2.5156 7.7656 1.6758 1.875 3.9844 2.8125 6.9219 2.8125 1.6328 0 3.1914-0.23828 4.6719-0.71875 1.4766-0.48828 2.9844-1.2539 4.5156-2.2969z"/>
  </symbol>
  <symbol id="h" overflow="visible">
   <path d="m21.453-17.406c-0.67969-0.3125-1.3516-0.53906-2.0156-0.6875-0.65625-0.15625-1.3203-0.23438-1.9844-0.23438-1.9688 0-3.4844 0.63281-4.5469 1.8906-1.0547 1.2617-1.5781 3.0703-1.5781 5.4219v11.016h-7.6562v-23.922h7.6562v3.9219c0.97656-1.5625 2.1016-2.7031 3.375-3.4219 1.2812-0.71875 2.8125-1.0781 4.5938-1.0781 0.25 0 0.52344 0.011719 0.82812 0.03125 0.30078 0.023438 0.73438 0.070312 1.2969 0.14062z"/>
  </symbol>
  <symbol id="c" overflow="visible">
   <path d="m27.562-12.031v2.1875h-17.891c0.1875 1.793 0.83203 3.1367 1.9375 4.0312 1.1133 0.89844 2.6719 1.3438 4.6719 1.3438 1.6016 0 3.25-0.23438 4.9375-0.70312 1.6875-0.47656 3.4219-1.2031 5.2031-2.1719v5.8906c-1.8047 0.6875-3.6094 1.2031-5.4219 1.5469-1.8125 0.35156-3.6211 0.53125-5.4219 0.53125-4.3359 0-7.7031-1.0977-10.109-3.2969-2.3984-2.207-3.5938-5.2969-3.5938-9.2656 0-3.9062 1.1758-6.9727 3.5312-9.2031 2.3633-2.2383 5.6094-3.3594 9.7344-3.3594 3.7578 0 6.7695 1.1367 9.0312 3.4062 2.2578 2.2617 3.3906 5.2812 3.3906 9.0625zm-7.8594-2.5312c0-1.457-0.42969-2.6289-1.2812-3.5156-0.84375-0.89453-1.9492-1.3438-3.3125-1.3438-1.4922 0-2.6992 0.41797-3.625 1.25-0.91797 0.83594-1.4922 2.0391-1.7188 3.6094z"/>
  </symbol>
  <symbol id="b" overflow="visible">
   <path d="m14.391-10.766c-1.5938 0-2.793 0.27344-3.5938 0.8125-0.80469 0.54297-1.2031 1.3398-1.2031 2.3906 0 0.96875 0.32031 1.7305 0.96875 2.2812 0.64453 0.54297 1.5469 0.8125 2.7031 0.8125 1.4375 0 2.6445-0.51562 3.625-1.5469 0.98828-1.0312 1.4844-2.3203 1.4844-3.875v-0.875zm11.688-2.8906v13.656h-7.7031v-3.5469c-1.0312 1.4492-2.1875 2.5078-3.4688 3.1719s-2.8398 1-4.6719 1c-2.4805 0-4.4961-0.72266-6.0469-2.1719-1.543-1.4453-2.3125-3.3203-2.3125-5.625 0-2.8125 0.96094-4.8672 2.8906-6.1719 1.9375-1.3125 4.9688-1.9688 9.0938-1.9688h4.5156v-0.60938c0-1.207-0.48047-2.0938-1.4375-2.6562-0.94922-0.5625-2.4375-0.84375-4.4688-0.84375-1.6367 0-3.1562 0.16797-4.5625 0.5-1.4062 0.32422-2.7188 0.8125-3.9375 1.4688v-5.8281c1.6445-0.40625 3.2891-0.70703 4.9375-0.90625 1.6562-0.20703 3.3047-0.3125 4.9531-0.3125 4.3203 0 7.4375 0.85547 9.3438 2.5625 1.9141 1.6992 2.875 4.4609 2.875 8.2812z"/>
  </symbol>
  <symbol id="g" overflow="visible">
   <path d="m12.031-30.719v6.7969h7.875v5.4688h-7.875v10.141c0 1.1172 0.21875 1.8711 0.65625 2.2656 0.4375 0.38672 1.3125 0.57812 2.625 0.57812h3.9375v5.4688h-6.5625c-3.0234 0-5.1641-0.62891-6.4219-1.8906-1.2617-1.2578-1.8906-3.3984-1.8906-6.4219v-10.141h-3.7969v-5.4688h3.7969v-6.7969z"/>
  </symbol>
  <symbol id="f" overflow="visible">
   <path d="m19.953-20.422v-12.812h7.6875v33.234h-7.6875v-3.4531c-1.0547 1.4062-2.2148 2.4375-3.4844 3.0938-1.2734 0.65625-2.7422 0.98438-4.4062 0.98438-2.9492 0-5.3711-1.1719-7.2656-3.5156-1.8867-2.3438-2.8281-5.3594-2.8281-9.0469s0.94141-6.7031 2.8281-9.0469c1.8945-2.3438 4.3164-3.5156 7.2656-3.5156 1.6562 0 3.1172 0.33594 4.3906 1 1.2812 0.65625 2.4453 1.6836 3.5 3.0781zm-5.0469 15.484c1.6445 0 2.8945-0.59766 3.75-1.7969 0.86328-1.1953 1.2969-2.9297 1.2969-5.2031 0-2.2812-0.43359-4.0195-1.2969-5.2188-0.85547-1.1953-2.1055-1.7969-3.75-1.7969-1.625 0-2.8711 0.60156-3.7344 1.7969-0.85547 1.1992-1.2812 2.9375-1.2812 5.2188 0 2.2734 0.42578 4.0078 1.2812 5.2031 0.86328 1.1992 2.1094 1.7969 3.7344 1.7969z"/>
  </symbol>
  <symbol id="e" overflow="visible">
   <path d="m16.406-4.9375c1.6328 0 2.8828-0.59766 3.75-1.7969 0.86328-1.1953 1.2969-2.9297 1.2969-5.2031 0-2.2812-0.43359-4.0195-1.2969-5.2188-0.86719-1.1953-2.1172-1.7969-3.75-1.7969-1.6367 0-2.8906 0.60547-3.7656 1.8125-0.875 1.1992-1.3125 2.9336-1.3125 5.2031 0 2.2617 0.4375 3.9961 1.3125 5.2031 0.875 1.1992 2.1289 1.7969 3.7656 1.7969zm-5.0781-15.484c1.0508-1.3945 2.2188-2.4219 3.5-3.0781 1.2812-0.66406 2.7539-1 4.4219-1 2.9453 0 5.3672 1.1719 7.2656 3.5156 1.8945 2.3438 2.8438 5.3594 2.8438 9.0469s-0.94922 6.7031-2.8438 9.0469c-1.8984 2.3438-4.3203 3.5156-7.2656 3.5156-1.668 0-3.1406-0.33594-4.4219-1s-2.4492-1.6914-3.5-3.0781v3.4531h-7.6562v-33.234h7.6562z"/>
  </symbol>
  <symbol id="a" overflow="visible">
   <path d="m0.53125-23.922h7.6562l6.4219 16.234 5.4688-16.234h7.6562l-10.062 26.188c-1.0117 2.6641-2.1953 4.5234-3.5469 5.5781-1.3438 1.0625-3.1211 1.5938-5.3281 1.5938h-4.4219v-5.0156h2.3906c1.3008 0 2.2422-0.21094 2.8281-0.625 0.59375-0.40625 1.0547-1.1484 1.3906-2.2188l0.20312-0.65625z"/>
  </symbol>
  <symbol id="d" overflow="visible">
   <path d="m4.0156-31.891h22.203v6.2188h-13.984v5.9375h13.141v6.2188h-13.141v7.2969h14.453v6.2188h-22.672z"/>
  </symbol>
  <symbol id="l" overflow="visible">
   <path d="m3.4219-9.3125v-14.609h7.6875v2.3906c0 1.293-0.011719 2.918-0.03125 4.875-0.011719 1.9609-0.015625 3.2656-0.015625 3.9219 0 1.9297 0.046875 3.3125 0.14062 4.1562 0.10156 0.84375 0.28125 1.4609 0.53125 1.8438 0.3125 0.5 0.71875 0.88672 1.2188 1.1562 0.50781 0.27344 1.0938 0.40625 1.75 0.40625 1.5938 0 2.8438-0.60938 3.75-1.8281 0.91406-1.2266 1.375-2.9297 1.375-5.1094v-11.812h7.6406v23.922h-7.6406v-3.4531c-1.1562 1.3867-2.3828 2.4141-3.6719 3.0781-1.2812 0.66406-2.6992 1-4.25 1-2.7734 0-4.8828-0.84766-6.3281-2.5469-1.4375-1.6953-2.1562-4.1602-2.1562-7.3906z"/>
  </symbol>
  <symbol id="k" overflow="visible">
   <path d="m23-23.172v6.2344c-1.0312-0.71875-2.0742-1.2422-3.125-1.5781-1.043-0.34375-2.125-0.51562-3.25-0.51562-2.1367 0-3.8047 0.625-5 1.875-1.1875 1.2422-1.7812 2.9805-1.7812 5.2188 0 2.2305 0.59375 3.9688 1.7812 5.2188 1.1953 1.25 2.8633 1.875 5 1.875 1.1953 0 2.332-0.17578 3.4062-0.53125 1.0703-0.36328 2.0625-0.89453 2.9688-1.5938v6.2656c-1.1875 0.4375-2.4023 0.76562-3.6406 0.98438-1.2305 0.22656-2.4648 0.34375-3.7031 0.34375-4.3125 0-7.6875-1.1094-10.125-3.3281s-3.6562-5.2969-3.6562-9.2344c0-3.9453 1.2188-7.0234 3.6562-9.2344 2.4375-2.2188 5.8125-3.3281 10.125-3.3281 1.25 0 2.4844 0.10938 3.7031 0.32812s2.4297 0.55469 3.6406 1z"/>
  </symbol>
  <symbol id="j" overflow="visible">
   <path d="m3.6719-33.234h7.6562v33.234h-7.6562z"/>
  </symbol>
  <symbol id="i" overflow="visible">
   <path d="m11.328-3.4531v12.547h-7.6562v-33.016h7.6562v3.5c1.0508-1.3945 2.2188-2.4219 3.5-3.0781 1.2812-0.66406 2.7539-1 4.4219-1 2.9453 0 5.3672 1.1719 7.2656 3.5156 1.8945 2.3438 2.8438 5.3594 2.8438 9.0469s-0.94922 6.7031-2.8438 9.0469c-1.8984 2.3438-4.3203 3.5156-7.2656 3.5156-1.668 0-3.1406-0.33594-4.4219-1s-2.4492-1.6914-3.5-3.0781zm5.0781-15.5c-1.6367 0-2.8906 0.60547-3.7656 1.8125-0.875 1.1992-1.3125 2.9336-1.3125 5.2031 0 2.2617 0.4375 3.9961 1.3125 5.2031 0.875 1.1992 2.1289 1.7969 3.7656 1.7969 1.6328 0 2.8828-0.59766 3.75-1.7969 0.86328-1.1953 1.2969-2.9297 1.2969-5.2031 0-2.2812-0.43359-4.0195-1.2969-5.2188-0.86719-1.1953-2.1172-1.7969-3.75-1.7969z"/>
  </symbol>
 </defs>
 <g>
  <path d="m154.51 257.67c1.4609-2.9297 3.2383-5.6094 5.1367-8.1719l-13.754-8.2617c-5.4375-3.2656-11.664-4.9883-18.008-4.9883h-20.039c-6.3945 0-11.594 5.1992-11.594 11.594 0 4.9961 3.1836 9.4141 7.9258 10.988l45.273 15.086c0.84766-5.6328 2.5117-11.156 5.0586-16.246z"/>
  <path d="m297.5 78.75c48.074 0 78.75-15.547 78.75-26.25s-30.676-26.25-78.75-26.25-78.75 15.547-78.75 26.25 30.676 26.25 78.75 26.25zm-35-35h70v17.5h-70z"/>
  <path d="m229.48 424.68 4.918-8.8555-28.062 20.039-10.168-14.246 51.285-36.637c-20.668-0.035157-40.469-6.3945-57.285-18.418-0.875-0.62109-1.6367-1.3633-2.4922-2.0117l-49.926 37.441c-4.0742 3.0547-6.4961 7.9023-6.4961 12.977 0 8.9414 6.0547 16.125 14.402 17.516l19.223 3.2031c10.938 1.8203 18.875 11.207 18.875 22.312 0 6.0391-2.3555 11.727-6.625 15.996l-21.875 21.875c-4.1914 4.1914-6.5 9.7656-6.5 15.688 0 12.234 9.957 22.191 22.191 22.191 24.184 0 47.484-3.7031 69.949-10.613-13.707-15.121-22.141-35.105-22.141-57.078 0-14.445 3.7109-28.75 10.727-41.379z"/>
  <path d="m602.83 448.17c-22.215-27.766-34.711-61.223-36.129-96.758l-5.4766-136.82c-0.74219-18.594-5.9062-37.004-14.945-53.27-16.301-29.348-47.285-47.574-80.852-47.574-30.992 0-59.762 15.398-76.949 41.188l-57.445 86.172-14.559-9.7031 57.445-86.172c2.8711-4.3047 6.0742-8.2969 9.4492-12.102-3.668-17.324-11.473-33.461-22.488-47.277-17.945 6.8242-40.973 10.395-63.383 10.395-37.285 0-76.359-9.8164-90.59-28.246-3.6406 3.7461-5.6602 8.6562-5.6602 13.887 0 6.2461 2.9844 12.215 7.9883 15.969 13.66 10.246 30.582 15.891 47.652 15.891 22.68 0 41.477 17.012 43.734 39.578l6.2109 62.188-36.871 15.801c-21.176 9.082-43.602 13.684-66.648 13.684-14.133 0-26.828 7.8477-33.152 20.492-2.5586 5.1172-3.9141 10.852-3.9141 16.574v4.0508c0 26.234 12.738 50.984 34.082 66.219 13.887 9.9219 30.246 15.164 47.301 15.164h2.4062c21.918 0 42.352-9.8164 56.051-26.941 5.7383-7.1758 8.9062-16.188 8.9062-25.383 0-13.625-6.7656-26.258-18.094-33.809l-4.2617-2.8438 9.7031-14.559 4.2617 2.8438c16.219 10.801 25.895 28.879 25.895 48.375 0 13.152-4.5234 26.047-12.738 36.312-12.047 15.059-28.332 25.461-46.453 30.328l-28.535 51.363c-5.5742 10.027-8.5234 21.391-8.5234 32.871 0 37.32 30.371 67.691 67.691 67.691h221.66c14.148 0 25.645-11.496 25.645-25.645 0-11.797-7.9883-22.023-19.426-24.875l-94.641-23.66c-14.043-3.5156-26.898-9.8789-38.203-18.926-19.934-15.941-32.898-38.641-36.504-63.91l-3.6406-25.496 17.316-2.4688 3.6406 25.496c2.9766 20.844 13.676 39.566 30.117 52.719 9.3203 7.4531 19.922 12.715 31.516 15.609l94.633 23.66c7.4883 1.8711 14.051 5.6602 19.328 10.711 5.7578-3.0469 10.133-8.2617 12.117-14.465-4.0234-2.7656-7.7617-6.0039-11.008-9.793-1.9531-2.2734-3.7539-4.6445-5.6016-6.9922-32.84-3.3789-60.672-24.621-72.746-54.941-25.566-8.3398-46.383-27.781-56.086-53.023l-10.812-28.133c-9.8789-25.68-30.195-46.277-55.754-56.5l-10.09-4.0352 58.598-86.406c13.965-20.949 36.566-32.164 63.867-31.387 15.078 0.40234 29.934 5.5117 41.859 14.402 20.703 15.426 31.379 38.195 32.637 69.605l0.12109 3.1055-17.484 0.69922-0.12109-3.1055c-1.0508-26.152-9.1875-44.039-25.609-56.281-9.0469-6.7461-20.371-10.633-31.867-10.938-20.902-0.61328-38.324 7.8398-48.867 23.66l-46.727 68.906c25.426 13.027 45.449 35.156 55.781 62.004l10.816 28.121c6.2656 16.273 18.234 29.609 33.328 37.73l-17.168-65.215c-4.6289-17.598-15.516-32.855-30.668-42.953l9.7031-14.559c18.715 12.477 32.164 31.324 37.887 53.059l20.133 76.512c6.0391 22.953 22.898 40.672 44.371 48.395-14.727-23.852-25.051-50.305-30.102-78.059l-7.0078-38.57 17.219-3.125 7.0078 38.57c6.5781 36.215 22.723 70.121 46.672 98.062 7.4609 8.6953 18.301 13.684 29.766 13.684 2.3203 0 4.1992-1.8828 4.1992-4.1992 0-0.95312-0.33203-1.8906-0.91797-2.6328zm-361.74-99.086c-13.555-6.7734-23.031-19.188-26.004-34.047-2.8945-14.473-9.8008-27.371-20.02-37.59l12.371-12.371c12.672 12.672 21.227 28.656 24.746 46.234 1.9688 9.8281 8.043 17.781 16.73 22.121z"/>
  <path d="m287.83 201.25-4.6211-46.184c-1.3555-13.578-12.668-23.816-26.32-23.816-13.098 0-26.129-2.7305-38.141-7.8594v34.109c0 24.125 19.625 43.75 43.75 43.75z"/>
  <path d="m104.6 189.92c-1.1211 3.6406 0.23438 7.5859 3.3516 9.7656 3.1133 2.1797 7.2969 2.082 10.316-0.22656l21.734-16.609 21.727 16.598c1.5664 1.1992 3.4375 1.8047 5.3125 1.8047 1.75 0 3.5-0.52344 5.0039-1.5742 3.1133-2.1797 4.4805-6.125 3.3516-9.7656l-8.5312-27.59 22.191-16.949c2.9844-2.2734 4.1836-6.2031 2.9766-9.7578-1.2109-3.5508-4.5273-5.9375-8.2812-5.9375h-26.969l-8.418-27.258c-1.1367-3.6641-4.5312-6.168-8.3633-6.168s-7.2266 2.5039-8.3633 6.168l-8.418 27.258h-26.969c-3.7539 0-7.0859 2.3906-8.2852 5.9492-1.1992 3.5625 0 7.4805 2.9766 9.7578l22.191 16.949z"/>
  <use x="70" y="691.25" xlink:href="#m"/>
  <use x="102.109375" y="691.25" xlink:href="#h"/>
  <use x="123.683594" y="691.25" xlink:href="#c"/>
  <use x="153.355469" y="691.25" xlink:href="#b"/>
  <use x="182.878906" y="691.25" xlink:href="#g"/>
  <use x="203.792969" y="691.25" xlink:href="#c"/>
  <use x="233.464844" y="691.25" xlink:href="#f"/>
  <use x="280.011719" y="691.25" xlink:href="#e"/>
  <use x="311.328125" y="691.25" xlink:href="#a"/>
  <use x="355.078125" y="691.25" xlink:href="#d"/>
  <use x="384.964844" y="691.25" xlink:href="#l"/>
  <use x="416.113281" y="691.25" xlink:href="#k"/>
  <use x="442.046875" y="691.25" xlink:href="#b"/>
  <use x="471.570312" y="691.25" xlink:href="#j"/>
  <use x="486.566406" y="691.25" xlink:href="#a"/>
  <use x="515.082031" y="691.25" xlink:href="#i"/>
 </g>
</svg>
